<svg xmlns="http://www.w3.org/2000/svg" xmlns:xlink="http://www.w3.org/1999/xlink" viewBox="0 0 146.85 97.22"><defs><style>.cls-1{fill:#231f20;}.cls-2,.cls-3,.cls-4{fill:none;}.cls-2,.cls-20,.cls-3,.cls-4{stroke-miterlimit:10;}.cls-2{stroke-width:0.75px;stroke:url(#linear-gradient);}.cls-3{stroke:#fff;stroke-width:0.15px;}.cls-20,.cls-4{stroke-width:0.25px;}.cls-4{stroke:url(#linear-gradient-5);}.cls-5{fill:url(#linear-gradient-9);}.cls-6{opacity:0.86;fill:url(#linear-gradient-10);}.cls-7{fill:url(#linear-gradient-11);}.cls-11,.cls-12,.cls-18,.cls-8{opacity:0.42;}.cls-8{fill:url(#linear-gradient-12);}.cls-9{opacity:0.73;fill:url(#linear-gradient-13);}.cls-10,.cls-13{opacity:0.46;}.cls-10{fill:url(#linear-gradient-14);}.cls-11{fill:url(#linear-gradient-15);}.cls-12{fill:url(#linear-gradient-16);}.cls-13{fill:url(#linear-gradient-17);}.cls-14,.cls-15,.cls-16,.cls-17{opacity:0.19;}.cls-14{fill:url(#linear-gradient-18);}.cls-15{fill:url(#linear-gradient-19);}.cls-16{fill:url(#linear-gradient-20);}.cls-17{fill:url(#linear-gradient-21);}.cls-18{fill:url(#linear-gradient-22);}.cls-19{fill:url(#linear-gradient-23);}.cls-20{fill:#fff;stroke:#231f20;}.cls-21{fill:url(#linear-gradient-24);}</style><linearGradient id="linear-gradient" x1="35.45" y1="45.05" x2="88.21" y2="45.05" gradientTransform="translate(6.4 -6.93) rotate(5.82)" gradientUnits="userSpaceOnUse"><stop offset="0" stop-color="#ba83ba"/><stop offset="0.21" stop-color="#50335c"/><stop offset="0.45" stop-color="#7f3f98"/><stop offset="0.48" stop-color="#743b8b"/><stop offset="0.57" stop-color="#522d61"/><stop offset="0.65" stop-color="#3d2547"/><stop offset="0.69" stop-color="#35223d"/><stop offset="0.77" stop-color="#40274b"/><stop offset="0.91" stop-color="#5e336e"/><stop offset="1" stop-color="#743c88"/></linearGradient><linearGradient id="linear-gradient-5" x1="65.12" y1="52.65" x2="91.02" y2="52.65" gradientTransform="translate(1.37 -2.27) rotate(1.75)" xlink:href="#linear-gradient"/><linearGradient id="linear-gradient-9" x1="90.75" y1="68.99" x2="94.54" y2="68.99" gradientTransform="translate(59.66 -66.35) rotate(36.25)" xlink:href="#linear-gradient"/><linearGradient id="linear-gradient-10" x1="239.63" y1="123.7" x2="242.25" y2="123.7" gradientTransform="translate(355.72 -31.31) rotate(136.21)" xlink:href="#linear-gradient"/><linearGradient id="linear-gradient-11" x1="90.51" y1="72.01" x2="92.3" y2="72.01" gradientTransform="translate(59.66 -66.35) rotate(36.25)" xlink:href="#linear-gradient"/><linearGradient id="linear-gradient-12" x1="151.03" y1="125.69" x2="154.35" y2="125.69" gradientTransform="matrix(0.06, 1, -1, 0.06, 211.93, -119.35)" xlink:href="#linear-gradient"/><linearGradient id="linear-gradient-13" x1="124.52" y1="109.16" x2="126.84" y2="109.16" gradientTransform="translate(145.09 -114.78) rotate(65.32)" xlink:href="#linear-gradient"/><linearGradient id="linear-gradient-14" x1="96.79" y1="63.84" x2="98.98" y2="63.84" gradientTransform="translate(59.66 -66.35) rotate(36.25)" xlink:href="#linear-gradient"/><linearGradient id="linear-gradient-15" x1="94.43" y1="62.05" x2="95.96" y2="62.05" gradientTransform="translate(59.66 -66.35) rotate(36.25)" xlink:href="#linear-gradient"/><linearGradient id="linear-gradient-16" x1="107.42" y1="89.02" x2="108.99" y2="89.02" gradientTransform="translate(101.48 -97.49) rotate(51.74)" xlink:href="#linear-gradient"/><linearGradient id="linear-gradient-17" x1="110.35" y1="85.31" x2="111.92" y2="85.31" gradientTransform="translate(101.48 -97.49) rotate(51.74)" xlink:href="#linear-gradient"/><linearGradient id="linear-gradient-18" x1="129.79" y1="93.23" x2="131.41" y2="93.23" gradientTransform="matrix(0.49, 1, -0.99, 0.49, 131.06, -136.04)" xlink:href="#linear-gradient"/><linearGradient id="linear-gradient-19" x1="110.58" y1="82.75" x2="112.15" y2="82.75" gradientTransform="translate(101.48 -97.49) rotate(51.74)" xlink:href="#linear-gradient"/><linearGradient id="linear-gradient-20" x1="150.23" y1="116.28" x2="152.64" y2="116.28" gradientTransform="translate(201.47 -125.92) rotate(82.87)" xlink:href="#linear-gradient"/><linearGradient id="linear-gradient-21" x1="88.6" y1="17.36" x2="90.12" y2="17.36" gradientTransform="matrix(0.97, 0.22, -0.22, 0.97, 20.11, 0.72)" xlink:href="#linear-gradient"/><linearGradient id="linear-gradient-22" x1="89.35" y1="22.31" x2="91.06" y2="22.31" gradientTransform="translate(19.77 -5.39) rotate(14.52)" xlink:href="#linear-gradient"/><linearGradient id="linear-gradient-23" x1="87.72" y1="65.99" x2="95.87" y2="69.88" gradientTransform="translate(1.02 -5.48) rotate(2.22)" gradientUnits="userSpaceOnUse"><stop offset="0.05" stop-color="#ae754a"/><stop offset="0.36" stop-color="#8b5e3c"/><stop offset="0.64" stop-color="#6b482b"/><stop offset="0.91" stop-color="#452e1c"/></linearGradient><linearGradient id="linear-gradient-24" x1="137.09" y1="66.85" x2="145.24" y2="70.75" gradientTransform="matrix(-0.98, 0.18, 0.18, 0.98, 186.03, -25.1)" xlink:href="#linear-gradient-23"/></defs><g id="Layer_1" data-name="Layer 1"><path class="cls-1" d="M48,51.7a8.65,8.65,0,0,1-3.83,1,8.1,8.1,0,0,1-2.5,2.87c-1.64,1.14-4,.68-4.79-2-.54-1.93-.13-3.77.56-4.19.89-.56,1.52.57,2.94,1.36a7.63,7.63,0,0,0,3,.92,12.39,12.39,0,0,0,.31-7c-.27-1.26-.77-2.9-1.23-4.46a6.47,6.47,0,0,1-1.44.88c-1.93.84-3.23.3-3.77-.16a.67.67,0,0,1,.24-.58,3.08,3.08,0,0,0,3.18.22,5,5,0,0,0,1.57-1c-.4-1.33-.75-2.55-.94-3.39-.85-3.7,1-7.94,3-8.26a1.53,1.53,0,0,1,1.92,1.38A13.55,13.55,0,0,1,43.59,39c.57,2,1.2,3.84,1.72,6.4a10.74,10.74,0,0,1-.69,6.26,8.2,8.2,0,0,0,3.2-.86c2.75-1.37,4.53-4.44,5.06-5.38a.44.44,0,0,1,.5.26A13.67,13.67,0,0,1,48,51.7Zm-8.39-.26c-1-.63-1.64-1.31-1.86-1.17a2.46,2.46,0,0,0-.33,2.3c.52,1.85,2.3,2.9,3.86,1.83a5.2,5.2,0,0,0,1.58-1.74A9.3,9.3,0,0,1,39.56,51.44Zm4.81-22.39c-.85.14-2.59,2.27-1.59,6.87.17.8.36,1.51.54,2.2A14.25,14.25,0,0,0,45.18,30C45.05,29.32,44.78,29,44.37,29.05Z"/><path class="cls-1" d="M65.08,44c-.35.83-1.48,2.76-2.85,3-1.61.32-2.61-1-3.18-2.17l-.1,0c-.32,1.16-1,3-2.45,3.5-1.2.36-2.92-.31-3.43-3.53s.92-8.14,3.85-8.41a2.06,2.06,0,0,1,2.24,1.75c.35.22.68.55.7.72a35.73,35.73,0,0,0,0,3.73c.23,1.85,1.24,3.6,2.41,3.38s2.12-1.94,2.54-3.09c.1-.33.2-.46.27-.47s.16.17.18.41A2.54,2.54,0,0,1,65.08,44Zm-7.76-6.78c-1.54.13-3.3,3.6-2.76,7.19.29,1.93,1.16,3.14,2,2.89,1.43-.45,2-5.64,1.67-8.71a.6.6,0,0,1,.19-.54C58.3,37.44,58,37.09,57.32,37.17Z"/><path class="cls-1" d="M76.72,44.06a4,4,0,0,1-2.9,1.83c-1,.15-3.09.19-3.55.2-2.6.14-5-1.64-5.07-2.37a.49.49,0,0,1,.41-.5.58.58,0,0,1,.28,0A30.53,30.53,0,0,0,67.76,39a1.07,1.07,0,0,1-.27-.56c-.08-.89.81-2.48,1.57-2.39.44.05.94.42,1,.73s-1,1.06-1,1.76c.1.89,4.76,2.65,5,5.21,0,.68-.49,1.28-1.3,1.69a5.89,5.89,0,0,0,1.12-.09,4.21,4.21,0,0,0,2.66-2.2c.12-.24.21-.33.28-.32s.12.16.14.36A1.63,1.63,0,0,1,76.72,44.06Zm-8.37-4.47A25.16,25.16,0,0,1,66.5,44c.37.48,1.42,1.2,3.5,1.12,1.41,0,2.35-.6,2.27-1.56C72.14,42.06,69.71,40.72,68.35,39.59Z"/><path class="cls-1" d="M89.44,47a2.81,2.81,0,0,1-2.93.7,4.77,4.77,0,0,1-3.7-4.13,12.33,12.33,0,0,1,0-2c0-.12,0-.22-.16-.26a4.42,4.42,0,0,0-1.79,1.82,10.23,10.23,0,0,0-1.07,2.64.67.67,0,0,1-.81.62c-.53-.06-1-.48-1.11-1.42s0-2.39,0-2.87-.37-2.55-.52-4.19c-.19-2.16.28-6.71,2.31-5.8a2.34,2.34,0,0,1,1.22,2c.25,2.49-1.13,6-1.87,7.86.13.66.29,1.27.41,1.79.68-1.34,2.6-4.14,4-3.57.34.12,1.18.55,1.23,1a4.43,4.43,0,0,0-.36,2.76A3.36,3.36,0,0,0,86.52,47a2.2,2.2,0,0,0,2.62-.76.29.29,0,0,1,.28-.09.49.49,0,0,1,.18.34A.57.57,0,0,1,89.44,47ZM79.69,33.15c-.52-.25-1.54,2-1.27,5.05.06.61.15,1.23.24,1.85a13.61,13.61,0,0,0,1.43-5.83C80,33.67,79.93,33.25,79.69,33.15Z"/><path class="cls-2" d="M48,51.7a8.65,8.65,0,0,1-3.83,1,8.1,8.1,0,0,1-2.5,2.87c-1.64,1.14-4,.68-4.79-2-.54-1.93-.13-3.77.56-4.19.89-.56,1.52.57,2.94,1.36a7.63,7.63,0,0,0,3,.92,12.39,12.39,0,0,0,.31-7c-.27-1.26-.77-2.9-1.23-4.46a6.47,6.47,0,0,1-1.44.88c-1.93.84-3.23.3-3.77-.16a.67.67,0,0,1,.24-.58,3.08,3.08,0,0,0,3.18.22,5,5,0,0,0,1.57-1c-.4-1.33-.75-2.55-.94-3.39-.85-3.7,1-7.94,3-8.26a1.53,1.53,0,0,1,1.92,1.38A13.55,13.55,0,0,1,43.59,39c.57,2,1.2,3.84,1.72,6.4a10.74,10.74,0,0,1-.69,6.26,8.2,8.2,0,0,0,3.2-.86c2.75-1.37,4.53-4.44,5.06-5.38a.44.44,0,0,1,.5.26A13.67,13.67,0,0,1,48,51.7Zm-8.39-.26c-1-.63-1.64-1.31-1.86-1.17a2.46,2.46,0,0,0-.33,2.3c.52,1.85,2.3,2.9,3.86,1.83a5.2,5.2,0,0,0,1.58-1.74A9.3,9.3,0,0,1,39.56,51.44Zm4.81-22.39c-.85.14-2.59,2.27-1.59,6.87.17.8.36,1.51.54,2.2A14.25,14.25,0,0,0,45.18,30C45.05,29.32,44.78,29,44.37,29.05Z"/><path class="cls-2" d="M65.08,44c-.35.83-1.48,2.76-2.85,3-1.61.32-2.61-1-3.18-2.17l-.1,0c-.32,1.16-1,3-2.45,3.5-1.2.36-2.92-.31-3.43-3.53s.92-8.14,3.85-8.41a2.06,2.06,0,0,1,2.24,1.75c.35.22.68.55.7.72a35.73,35.73,0,0,0,0,3.73c.23,1.85,1.24,3.6,2.41,3.38s2.12-1.94,2.54-3.09c.1-.33.2-.46.27-.47s.16.17.18.41A2.54,2.54,0,0,1,65.08,44Zm-7.76-6.78c-1.54.13-3.3,3.6-2.76,7.19.29,1.93,1.16,3.14,2,2.89,1.43-.45,2-5.64,1.67-8.71a.6.6,0,0,1,.19-.54C58.3,37.44,58,37.09,57.32,37.17Z"/><path class="cls-2" d="M76.72,44.06a4,4,0,0,1-2.9,1.83c-1,.15-3.09.19-3.55.2-2.6.14-5-1.64-5.07-2.37a.49.49,0,0,1,.41-.5.58.58,0,0,1,.28,0A30.53,30.53,0,0,0,67.76,39a1.07,1.07,0,0,1-.27-.56c-.08-.89.81-2.48,1.57-2.39.44.05.94.42,1,.73s-1,1.06-1,1.76c.1.89,4.76,2.65,5,5.21,0,.68-.49,1.28-1.3,1.69a5.89,5.89,0,0,0,1.12-.09,4.21,4.21,0,0,0,2.66-2.2c.12-.24.21-.33.28-.32s.12.16.14.36A1.63,1.63,0,0,1,76.72,44.06Zm-8.37-4.47A25.16,25.16,0,0,1,66.5,44c.37.48,1.42,1.2,3.5,1.12,1.41,0,2.35-.6,2.27-1.56C72.14,42.06,69.71,40.72,68.35,39.59Z"/><path class="cls-2" d="M89.44,47a2.81,2.81,0,0,1-2.93.7,4.77,4.77,0,0,1-3.7-4.13,12.33,12.33,0,0,1,0-2c0-.12,0-.22-.16-.26a4.42,4.42,0,0,0-1.79,1.82,10.23,10.23,0,0,0-1.07,2.64.67.67,0,0,1-.81.62c-.53-.06-1-.48-1.11-1.42s0-2.39,0-2.87-.37-2.55-.52-4.19c-.19-2.16.28-6.71,2.31-5.8a2.34,2.34,0,0,1,1.22,2c.25,2.49-1.13,6-1.87,7.86.13.66.29,1.27.41,1.79.68-1.34,2.6-4.14,4-3.57.34.12,1.18.55,1.23,1a4.43,4.43,0,0,0-.36,2.76A3.36,3.36,0,0,0,86.52,47a2.2,2.2,0,0,0,2.62-.76.29.29,0,0,1,.28-.09.49.49,0,0,1,.18.34A.57.57,0,0,1,89.44,47ZM79.69,33.15c-.52-.25-1.54,2-1.27,5.05.06.61.15,1.23.24,1.85a13.61,13.61,0,0,0,1.43-5.83C80,33.67,79.93,33.25,79.69,33.15Z"/><path class="cls-3" d="M48,51.7a8.65,8.65,0,0,1-3.83,1,8.1,8.1,0,0,1-2.5,2.87c-1.64,1.14-4,.68-4.79-2-.54-1.93-.13-3.77.56-4.19.89-.56,1.52.57,2.94,1.36a7.63,7.63,0,0,0,3,.92,12.39,12.39,0,0,0,.31-7c-.27-1.26-.77-2.9-1.23-4.46a6.47,6.47,0,0,1-1.44.88c-1.93.84-3.23.3-3.77-.16a.67.67,0,0,1,.24-.58,3.08,3.08,0,0,0,3.18.22,5,5,0,0,0,1.57-1c-.4-1.33-.75-2.55-.94-3.39-.85-3.7,1-7.94,3-8.26a1.53,1.53,0,0,1,1.92,1.38A13.55,13.55,0,0,1,43.59,39c.57,2,1.2,3.84,1.72,6.4a10.74,10.74,0,0,1-.69,6.26,8.2,8.2,0,0,0,3.2-.86c2.75-1.37,4.53-4.44,5.06-5.38a.44.44,0,0,1,.5.26A13.67,13.67,0,0,1,48,51.7Zm-8.39-.26c-1-.63-1.64-1.31-1.86-1.17a2.46,2.46,0,0,0-.33,2.3c.52,1.85,2.3,2.9,3.86,1.83a5.2,5.2,0,0,0,1.58-1.74A9.3,9.3,0,0,1,39.56,51.44Zm4.81-22.39c-.85.14-2.59,2.27-1.59,6.87.17.8.36,1.51.54,2.2A14.25,14.25,0,0,0,45.18,30C45.05,29.32,44.78,29,44.37,29.05Z"/><path class="cls-3" d="M65.08,44c-.35.83-1.48,2.76-2.85,3-1.61.32-2.61-1-3.18-2.17l-.1,0c-.32,1.16-1,3-2.45,3.5-1.2.36-2.92-.31-3.43-3.53s.92-8.14,3.85-8.41a2.06,2.06,0,0,1,2.24,1.75c.35.22.68.55.7.72a35.73,35.73,0,0,0,0,3.73c.23,1.85,1.24,3.6,2.41,3.38s2.12-1.94,2.54-3.09c.1-.33.2-.46.27-.47s.16.17.18.41A2.54,2.54,0,0,1,65.08,44Zm-7.76-6.78c-1.54.13-3.3,3.6-2.76,7.19.29,1.93,1.16,3.14,2,2.89,1.43-.45,2-5.64,1.67-8.71a.6.6,0,0,1,.19-.54C58.3,37.44,58,37.09,57.32,37.17Z"/><path class="cls-3" d="M76.72,44.06a4,4,0,0,1-2.9,1.83c-1,.15-3.09.19-3.55.2-2.6.14-5-1.64-5.07-2.37a.49.49,0,0,1,.41-.5.58.58,0,0,1,.28,0A30.53,30.53,0,0,0,67.76,39a1.07,1.07,0,0,1-.27-.56c-.08-.89.81-2.48,1.57-2.39.44.05.94.42,1,.73s-1,1.06-1,1.76c.1.89,4.76,2.65,5,5.21,0,.68-.49,1.28-1.3,1.69a5.89,5.89,0,0,0,1.12-.09,4.21,4.21,0,0,0,2.66-2.2c.12-.24.21-.33.28-.32s.12.16.14.36A1.63,1.63,0,0,1,76.72,44.06Zm-8.37-4.47A25.16,25.16,0,0,1,66.5,44c.37.48,1.42,1.2,3.5,1.12,1.41,0,2.35-.6,2.27-1.56C72.14,42.06,69.71,40.72,68.35,39.59Z"/><path class="cls-3" d="M89.44,47a2.81,2.81,0,0,1-2.93.7,4.77,4.77,0,0,1-3.7-4.13,12.33,12.33,0,0,1,0-2c0-.12,0-.22-.16-.26a4.42,4.42,0,0,0-1.79,1.82,10.23,10.23,0,0,0-1.07,2.64.67.67,0,0,1-.81.62c-.53-.06-1-.48-1.11-1.42s0-2.39,0-2.87-.37-2.55-.52-4.19c-.19-2.16.28-6.71,2.31-5.8a2.34,2.34,0,0,1,1.22,2c.25,2.49-1.13,6-1.87,7.86.13.66.29,1.27.41,1.79.68-1.34,2.6-4.14,4-3.57.34.12,1.18.55,1.23,1a4.43,4.43,0,0,0-.36,2.76A3.36,3.36,0,0,0,86.52,47a2.2,2.2,0,0,0,2.62-.76.29.29,0,0,1,.28-.09.49.49,0,0,1,.18.34A.57.57,0,0,1,89.44,47ZM79.69,33.15c-.52-.25-1.54,2-1.27,5.05.06.61.15,1.23.24,1.85a13.61,13.61,0,0,0,1.43-5.83C80,33.67,79.93,33.25,79.69,33.15Z"/><path class="cls-1" d="M71.45,52A3.15,3.15,0,0,1,69,53.32h-.12C68,55.39,66.6,56.4,65.7,56.39c-1.2,0-1.26-1.53-.1-3.7s2.9-3.8,3.68-3.69c.51.07.93.86-.16,3.71l-.05.12a.41.41,0,0,0,.22.09,3,3,0,0,0,2.15-1.28c.12-.14.21-.24.27-.24s.06.08,0,.15A2,2,0,0,1,71.45,52Zm-3.24-.13a1.85,1.85,0,0,1,1.06-1c.24-.94.13-1.33-.15-1.36-.49-.07-1.85,1.37-2.75,3.16s-1,3-.33,3,1.58-.78,2.39-2.52C68,53,68,52.47,68.21,51.88Z"/><path class="cls-1" d="M75.86,54.3c-.19.47-.92,1.68-1.75,1.76-1,.09-1.64-1-1.26-2.73.19-.86.5-1.79.52-1.89s.06-.18,0-.19a12.65,12.65,0,0,0-1.48,2.12c-.64,1.06-1.32,2.49-1.42,2.65a.48.48,0,0,1-.25.24.39.39,0,0,1-.2.06c-.2,0-.38-.16-.24-.59s.6-1.66.71-2,.76-2.47,1-3.07.46-1.18.72-1.16.3.25.2.6-.8,1.84-1.08,2.81c-.1.35-.24.83-.37,1.3.81-1.26,2.6-4.26,3.1-4.22a.42.42,0,0,1,.41.5,12.55,12.55,0,0,0-.83,2.8c-.27,1.44.13,2.24.59,2.2.68,0,1.28-1,1.62-1.79.06-.13.1-.21.13-.22s.08.08.07.23A2.17,2.17,0,0,1,75.86,54.3Z"/><path class="cls-1" d="M87,52.59c.07.43-.09,1.33-.8,1.5s-1.75-.17-2.42-1.83a10.76,10.76,0,0,1-.54-1.74c0-.05,0-.11-.09-.11S83,51.24,83,52a6.54,6.54,0,0,0,.3,2.18c0,.13-.09.27-.24.3a.26.26,0,0,1-.32-.21c0-.16-.24-.74-.44-1.43s-.44-1.77-.8-1.73-.49,1-.55,1.79a7.38,7.38,0,0,0,.14,1.94.27.27,0,0,1-.19.29.33.33,0,0,1-.17.09c-.18,0-.42-.08-.48-.45s-.13-1.34-.18-1.63-.32-2.06-.38-2.57-.06-1,.2-1,.32.18.37.46.06,1.56.2,2.37l.11.61c.15-1,.39-2.34.88-2.39s1,1.08,1.07,1.27h0c0-.48.21-2.51.63-2.53a.42.42,0,0,1,.4.24A13.29,13.29,0,0,0,84.27,52c.61,1.36,1.42,1.74,1.82,1.64.59-.14.62-1.07.55-1.5,0-.12,0-.2,0-.21s.09,0,.17.15A1.75,1.75,0,0,1,87,52.59Z"/><path class="cls-1" d="M90.63,51.52c.41.76-.11,1.41-1,1.68a3,3,0,0,1-3.4-1.41c-.69-1.15-1-2.74-.32-2.81.32,0,.9.24,1.51,1s.66,1.57-.09,1.75a2.58,2.58,0,0,1-.36,0,2.43,2.43,0,0,0,2.61,1.05,1,1,0,0,0,.68-1.43c-.06-.16-.07-.24,0-.25s.09,0,.17.08A1.3,1.3,0,0,1,90.63,51.52Zm-4.56-2.23c-.35,0,.12,1.18.61,2a.48.48,0,0,0,.37.06c.54-.12.37-.82-.21-1.54C86.58,49.51,86.24,49.27,86.07,49.29Z"/><path class="cls-4" d="M71.45,52A3.15,3.15,0,0,1,69,53.32h-.12C68,55.39,66.6,56.4,65.7,56.39c-1.2,0-1.26-1.53-.1-3.7s2.9-3.8,3.68-3.69c.51.07.93.86-.16,3.71l-.05.12a.41.41,0,0,0,.22.09,3,3,0,0,0,2.15-1.28c.12-.14.21-.24.27-.24s.06.08,0,.15A2,2,0,0,1,71.45,52Zm-3.24-.13a1.85,1.85,0,0,1,1.06-1c.24-.94.13-1.33-.15-1.36-.49-.07-1.85,1.37-2.75,3.16s-1,3-.33,3,1.58-.78,2.39-2.52C68,53,68,52.47,68.21,51.88Z"/><path class="cls-4" d="M75.86,54.3c-.19.47-.92,1.68-1.75,1.76-1,.09-1.64-1-1.26-2.73.19-.86.5-1.79.52-1.89s.06-.18,0-.19a12.65,12.65,0,0,0-1.48,2.12c-.64,1.06-1.32,2.49-1.42,2.65a.48.48,0,0,1-.25.24.39.39,0,0,1-.2.06c-.2,0-.38-.16-.24-.59s.6-1.66.71-2,.76-2.47,1-3.07.46-1.18.72-1.16.3.25.2.6-.8,1.84-1.08,2.81c-.1.35-.24.83-.37,1.3.81-1.26,2.6-4.26,3.1-4.22a.42.42,0,0,1,.41.5,12.55,12.55,0,0,0-.83,2.8c-.27,1.44.13,2.24.59,2.2.68,0,1.28-1,1.62-1.79.06-.13.1-.21.13-.22s.08.08.07.23A2.17,2.17,0,0,1,75.86,54.3Z"/><path class="cls-4" d="M87,52.59c.07.43-.09,1.33-.8,1.5s-1.75-.17-2.42-1.83a10.76,10.76,0,0,1-.54-1.74c0-.05,0-.11-.09-.11S83,51.24,83,52a6.54,6.54,0,0,0,.3,2.18c0,.13-.09.27-.24.3a.26.26,0,0,1-.32-.21c0-.16-.24-.74-.44-1.43s-.44-1.77-.8-1.73-.49,1-.55,1.79a7.38,7.38,0,0,0,.14,1.94.27.27,0,0,1-.19.29.33.33,0,0,1-.17.09c-.18,0-.42-.08-.48-.45s-.13-1.34-.18-1.63-.32-2.06-.38-2.57-.06-1,.2-1,.32.18.37.46.06,1.56.2,2.37l.11.61c.15-1,.39-2.34.88-2.39s1,1.08,1.07,1.27h0c0-.48.21-2.51.63-2.53a.42.42,0,0,1,.4.24A13.29,13.29,0,0,0,84.27,52c.61,1.36,1.42,1.74,1.82,1.64.59-.14.62-1.07.55-1.5,0-.12,0-.2,0-.21s.09,0,.17.15A1.75,1.75,0,0,1,87,52.59Z"/><path class="cls-4" d="M90.63,51.52c.41.76-.11,1.41-1,1.68a3,3,0,0,1-3.4-1.41c-.69-1.15-1-2.74-.32-2.81.32,0,.9.24,1.51,1s.66,1.57-.09,1.75a2.58,2.58,0,0,1-.36,0,2.43,2.43,0,0,0,2.61,1.05,1,1,0,0,0,.68-1.43c-.06-.16-.07-.24,0-.25s.09,0,.17.08A1.3,1.3,0,0,1,90.63,51.52Zm-4.56-2.23c-.35,0,.12,1.18.61,2a.48.48,0,0,0,.37.06c.54-.12.37-.82-.21-1.54C86.58,49.51,86.24,49.27,86.07,49.29Z"/><polygon class="cls-5" points="94.3 42.98 95.61 43.14 94.61 44.2 94.77 45.64 93.62 45 92.41 45.73 92.7 44.28 91.79 43.29 93.12 43.03 93.77 41.69 94.3 42.98"/><polygon class="cls-6" points="96.65 46.68 96.35 47.57 95.91 46.83 95.08 46.86 95.62 46.11 95.41 45.24 96.18 45.52 96.88 44.95 96.81 45.88 97.46 46.39 96.65 46.68"/><polygon class="cls-7" points="91.13 45.26 91.75 45.33 91.28 45.83 91.35 46.51 90.81 46.21 90.24 46.55 90.38 45.87 89.95 45.4 90.58 45.28 90.88 44.65 91.13 45.26"/><polygon class="cls-8" points="97.32 41.05 97.83 42.01 96.78 41.94 96.06 42.86 95.89 41.73 94.93 41.32 95.87 40.7 96 39.53 96.75 40.28 97.8 39.96 97.32 41.05"/><polygon class="cls-9" points="98.98 44.64 99.57 45.13 98.82 45.38 98.53 46.19 98.14 45.5 97.37 45.51 97.88 44.83 97.69 44.02 98.4 44.3 99.06 43.79 98.98 44.64"/><polygon class="cls-10" points="101.27 42.38 102.02 42.47 101.45 43.08 101.54 43.91 100.87 43.55 100.17 43.97 100.34 43.13 99.82 42.56 100.58 42.41 100.96 41.63 101.27 42.38"/><polygon class="cls-11" points="100.03 39.54 100.56 39.6 100.16 40.03 100.22 40.61 99.76 40.36 99.27 40.65 99.39 40.06 99.02 39.67 99.56 39.56 99.82 39.02 100.03 39.54"/><polygon class="cls-12" points="98.95 42.25 99.44 42.47 98.95 42.78 98.87 43.37 98.5 42.98 97.97 43.13 98.22 42.58 97.97 42.08 98.5 42.13 98.88 41.67 98.95 42.25"/><polygon class="cls-13" points="103.69 42.26 104.17 42.48 103.69 42.78 103.6 43.38 103.23 42.99 102.7 43.13 102.95 42.59 102.7 42.09 103.23 42.14 103.61 41.68 103.69 42.26"/><polygon class="cls-14" points="103.27 40.15 103.73 40.52 103.15 40.73 102.94 41.37 102.63 40.83 102.03 40.86 102.41 40.32 102.25 39.7 102.81 39.89 103.31 39.49 103.27 40.15"/><polygon class="cls-15" points="105.84 40.85 106.32 41.07 105.84 41.38 105.76 41.97 105.38 41.58 104.85 41.73 105.11 41.18 104.86 40.68 105.39 40.73 105.77 40.27 105.84 40.85"/><polygon class="cls-16" points="105.55 38.64 105.96 39.32 105.19 39.32 104.7 40.02 104.53 39.21 103.81 38.96 104.47 38.46 104.52 37.61 105.11 38.12 105.86 37.84 105.55 38.64"/><polygon class="cls-17" points="103.46 37.07 103.99 36.9 103.76 37.45 104.03 37.94 103.5 37.92 103.14 38.39 103.04 37.82 102.54 37.63 103.02 37.3 103.07 36.71 103.46 37.07"/><polygon class="cls-18" points="101.67 38.24 102.26 38.06 101.99 38.68 102.28 39.24 101.68 39.19 101.26 39.71 101.17 39.07 100.62 38.83 101.16 38.48 101.24 37.81 101.67 38.24"/></g><g id="Layer_3" data-name="Layer 3"><path class="cls-19" d="M84,63.56c-.91,2.06,1.16,5.8,4.32,6.63,2.89.77,6.47-1,6.86-3.35.33-2-1.33-4-1.57-4.23C90.78,60.27,85.08,61.14,84,63.56Z"/><path class="cls-1" d="M86.37,65.66a2.84,2.84,0,0,0-1.06.65,2.91,2.91,0,0,1,.91-.94Z"/><path class="cls-1" d="M89.61,61.24a6.1,6.1,0,0,0-3.6,1,3.74,3.74,0,0,0-.22,6.32,6.24,6.24,0,0,0,7.06.27,3.75,3.75,0,0,0,.27-6.32A6.11,6.11,0,0,0,89.61,61.24Zm0-.13a6.6,6.6,0,0,1,1.92.32,6.17,6.17,0,0,1,1.78.84,5.13,5.13,0,0,1,1.46,1.44,4.18,4.18,0,0,1,.69,2.07,4.88,4.88,0,0,1-1.95,4,6.93,6.93,0,0,1-1.1.68,2.31,2.31,0,0,1-1.28.11c-1-.07-1.93-.16-2.89-.26-.64-.07-1.27-.14-1.91-.23a2,2,0,0,1-1.27-.63,4.88,4.88,0,0,1-1.63-4.15,4.22,4.22,0,0,1,.84-2A5.23,5.23,0,0,1,85.84,62a6.53,6.53,0,0,1,1.84-.7A6.62,6.62,0,0,1,89.61,61.11Z"/><ellipse class="cls-1" cx="88.99" cy="64.72" rx="2.85" ry="3.12" transform="translate(20.86 151.13) rotate(-87.78)"/><path class="cls-20" d="M87.63,65.66a.35.35,0,0,1-.14,0,.43.43,0,0,1-.27-.24.45.45,0,0,1,0-.36.48.48,0,0,1,.47-.31l.13,0a.48.48,0,0,1,.28.24.48.48,0,0,1-.44.68Z"/><path class="cls-1" d="M83.68,65.4l.44-.26.49-.28a5.2,5.2,0,0,1,1-.48,5.29,5.29,0,0,0-.92.62l-.43.35c-.16.12-.26.22-.47.37Z"/><path class="cls-1" d="M83.57,66.36c.09,0,.28-.16.41-.23l.44-.25a4.53,4.53,0,0,1,.92-.43,4.54,4.54,0,0,0-.83.57l-.39.31a2.8,2.8,0,0,1-.43.34Z"/><path class="cls-1" d="M83.91,67.51l.4-.23.44-.25a5.44,5.44,0,0,1,.91-.44,5.72,5.72,0,0,0-.82.57l-.38.32a4.31,4.31,0,0,1-.43.34Z"/><path class="cls-1" d="M84.79,69.15c.12-.11.32-.32.47-.48l.5-.52a6.87,6.87,0,0,1,1.08-.94,7.27,7.27,0,0,0-1,1.05l-.43.57c-.16.2-.26.36-.47.6Z"/><path class="cls-1" d="M85.8,69.93c.12-.11.32-.32.47-.48l.5-.52A6.94,6.94,0,0,1,87.85,68a6.37,6.37,0,0,0-.95,1.06l-.44.56c-.15.2-.25.36-.46.6Z"/><path class="cls-1" d="M86.88,69.86c.07-.07.19-.23.29-.35l.3-.38a4.33,4.33,0,0,1,.7-.72,3.8,3.8,0,0,0-.55.78l-.23.4a3.12,3.12,0,0,1-.26.44Z"/><path class="cls-1" d="M89.08,70.32s0-.2,0-.29l.05-.33a2.54,2.54,0,0,1,.19-.65,2.43,2.43,0,0,0,0,.66l0,.32a3.57,3.57,0,0,1,0,.37Z"/><path class="cls-1" d="M85.49,69.43l.26-.3.3-.34a4.16,4.16,0,0,1,.64-.62,4.66,4.66,0,0,0-.51.72l-.22.38c-.09.14-.12.23-.26.42Z"/><path class="cls-1" d="M84.34,68.38l.26-.18.28-.22a3.87,3.87,0,0,1,.61-.38,3.31,3.31,0,0,0-.49.5l-.23.28c-.09.1-.12.16-.26.3Z"/><path class="cls-1" d="M88.41,70c0-.08.08-.27.11-.4l.12-.44a3.15,3.15,0,0,1,.34-.86,2.92,2.92,0,0,0-.17.88l0,.44a3.13,3.13,0,0,1,0,.48Z"/><path class="cls-1" d="M90.11,70.21l0-.93c0-.17,0-.33,0-.49a1.56,1.56,0,0,1,.08-.48,1.55,1.55,0,0,0,0,.48,4,4,0,0,0,.07.48l.1.48.05.24a1.42,1.42,0,0,1,0,.27Z"/><path class="cls-1" d="M92.26,70.08a.81.81,0,0,0-.07-.14l-.09-.18-.18-.38a3.45,3.45,0,0,1-.31-.77,3.89,3.89,0,0,0,.45.69l.25.32.13.16a1.24,1.24,0,0,1,.14.21Z"/><path class="cls-1" d="M93.31,69.14a1.16,1.16,0,0,1-.07-.15l-.1-.18L93,68.44a3.62,3.62,0,0,1-.3-.77,3.76,3.76,0,0,0,.44.68l.26.33.12.16a1,1,0,0,1,.15.2Z"/><path class="cls-1" d="M94.76,67.92l-.14-.07-.18-.1-.36-.2a3.15,3.15,0,0,1-.69-.45,3.27,3.27,0,0,0,.75.3l.4.12.19,0a1.07,1.07,0,0,1,.24.09Z"/><path class="cls-1" d="M91.46,70l-.4-1A4.42,4.42,0,0,1,90.73,68a4.6,4.6,0,0,0,.48,1l.28.47.14.24a1.3,1.3,0,0,1,.16.28Z"/><path class="cls-1" d="M92.86,69.79l-.68-1c-.12-.17-.24-.34-.34-.51a2.38,2.38,0,0,1-.28-.55,2.76,2.76,0,0,0,.34.5l.41.46.41.44.22.22c.07.09.12.12.23.27Z"/><path class="cls-1" d="M94.31,68.61l-.23-.2-.25-.24a3.24,3.24,0,0,1-.48-.5,3.82,3.82,0,0,0,.58.37l.3.16a3.25,3.25,0,0,1,.33.19Z"/><path class="cls-1" d="M95.16,66.51l-.42,0-.47,0a4.82,4.82,0,0,1-.93,0,4.47,4.47,0,0,0,.9-.17l.45-.12c.17,0,.26-.08.49-.12Z"/><path class="cls-1" d="M95.23,65.3l-.41.11-.45.12a4.36,4.36,0,0,1-.93.18,5.75,5.75,0,0,0,.87-.33l.42-.2A2.62,2.62,0,0,1,95.2,65Z"/><path class="cls-1" d="M94.78,64.62h0l-.06,0-.12,0-.26.09a2,2,0,0,1-.53.13,1.89,1.89,0,0,0,.45-.28l.21-.16.11-.09.05,0,0,0h0l.07,0Z"/><polygon class="cls-1" points="88.07 66.77 87.18 67.95 87.78 66.59 88.07 66.77"/><polygon class="cls-1" points="91.43 66.27 91.9 67.28 91.15 66.46 91.43 66.27"/><path class="cls-20" d="M86.86,65.41a.85.85,0,0,1-.23,0,.86.86,0,0,1-.48-.42.84.84,0,0,1,0-.62.82.82,0,0,1,.81-.55.59.59,0,0,1,.23,0,.83.83,0,0,1,.48.42.78.78,0,0,1,0,.62.82.82,0,0,1-.81.55Z"/><path class="cls-1" d="M76.55,71.26a22.59,22.59,0,0,1,5.91-8.16,20.29,20.29,0,0,1,2-1.65A14.58,14.58,0,0,1,86.75,60a11.51,11.51,0,0,1,5.61-1.38,8.32,8.32,0,0,1,3,.73c.74.33,1.49.64,2.21,1q2.17,1,4.33,2a15.87,15.87,0,0,0,4.3,1.27l4.89.56c-.12,0-.49.26-.61.32a7.05,7.05,0,0,1-.76.3,8,8,0,0,1-1.53.32A14.33,14.33,0,0,1,105,65a49.53,49.53,0,0,1-6.85-1.18,11.15,11.15,0,0,1-1.52-.56L93,61.84a5.51,5.51,0,0,0-1.55-.5,5.72,5.72,0,0,0-1.89.1,10.35,10.35,0,0,0-1.81.59,22.8,22.8,0,0,0-4.09,2.56,41.88,41.88,0,0,0-6.89,6.81Z"/><path class="cls-1" d="M79.39,71.19c.12-1.07,2-1.16,2.77-1.18,5.33-.16,10.76.28,16-.94a3.45,3.45,0,0,0,1.46-.61,3.25,3.25,0,0,0,1-2.15c.08-.54.5-1.63.11-2.12A2.53,2.53,0,0,0,99,63.33l7.21,1.74c-.13,0-1,.81-1.11.93-.41.32-.84.64-1.27.94-.72.49-1.46,1-2.23,1.37s-1.37.57-2,.91a17.75,17.75,0,0,1-6.07,1.45,39.78,39.78,0,0,1-6.17-.15,23.8,23.8,0,0,0-6.08.27A10.28,10.28,0,0,0,80,71c-.2.07-.37.22-.57.28A.49.49,0,0,1,79.39,71.19Z"/><path class="cls-1" d="M79.9,70.82c-.11-.15-.22-.36-.35-.52a4.76,4.76,0,0,0-.41-.47,3.47,3.47,0,0,0-.49-.37,1,1,0,0,1-.47-.88h0l.89.14s0,.13.06.35l.25.61c.09.19.17.41.26.59l.15.27C79.9,70.67,79.84,70.81,79.9,70.82Zm0,0c-.1.06-.15,0-.15-.09a.27.27,0,0,0-.07-.13l-.21-.26c-.13-.17-.24-.36-.36-.54l-.35-.54a1,1,0,0,1-.23-.63l.1,0h0a.63.63,0,0,0,.26.51,2.9,2.9,0,0,1,.43.49,3.92,3.92,0,0,1,.33.56A2.78,2.78,0,0,1,79.94,70.84Z"/><path class="cls-1" d="M70.47,71.79c0-.18.14-.4.18-.6a4.23,4.23,0,0,0,.11-.62,3.23,3.23,0,0,0,0-.61,1,1,0,0,1,.38-.92h0l.45.78s-.13.05-.23.27l-.31.58c-.1.19-.22.39-.3.57l-.12.29C70.58,71.7,70.43,71.74,70.47,71.79Zm0,0c-.11,0-.06-.15,0-.18a.19.19,0,0,0,.06-.13l.07-.33c0-.21.13-.41.19-.62L71,70a1,1,0,0,1,.34-.57l0,.09h0a.64.64,0,0,0-.24.53,2.93,2.93,0,0,1-.1.64,5,5,0,0,1-.22.61A3.76,3.76,0,0,1,70.48,71.84Z"/><path class="cls-1" d="M88.46,56.09A4.22,4.22,0,0,1,89.8,58.3a4.62,4.62,0,0,1,.12,1.39,6.62,6.62,0,0,1-.24,1.4l-1.45-.67a5.55,5.55,0,0,0,.52-1A4.26,4.26,0,0,0,89,58.38,3.82,3.82,0,0,0,88.46,56.09Z"/><path class="cls-1" d="M90.17,54.88a4,4,0,0,1,1.07,2.24,4.23,4.23,0,0,1,0,1.28,5.52,5.52,0,0,1-.34,1.25l-.45-.21a5.51,5.51,0,0,0,.42-1.11A4,4,0,0,0,91,57.14,3.93,3.93,0,0,0,90.17,54.88Z"/><path class="cls-1" d="M92.12,52.91A5.21,5.21,0,0,1,93.81,56a5.4,5.4,0,0,1,0,1.88,7.55,7.55,0,0,1-.6,1.81l-1.36-.84a6.34,6.34,0,0,0,.81-1.31A4.21,4.21,0,0,0,93,56,4.82,4.82,0,0,0,92.12,52.91Z"/><path class="cls-1" d="M94.23,53a5.18,5.18,0,0,1,.88,3.3,5,5,0,0,1-.45,1.7,6.94,6.94,0,0,1-.94,1.51l-.37-.34a6.67,6.67,0,0,0,1-1.33,4.8,4.8,0,0,0,.54-1.57A5,5,0,0,0,94.23,53Z"/><path class="cls-1" d="M95.89,56.09a5.1,5.1,0,0,1,.28,2.32,3.77,3.77,0,0,1-.44,1.24,3.35,3.35,0,0,1-1,1l-.68-1.45a1.82,1.82,0,0,0,.75-.34,2.12,2.12,0,0,0,.6-.71A4.56,4.56,0,0,0,95.89,56.09Z"/><path class="cls-1" d="M96.69,53.57a8,8,0,0,1,1,3.39,5.45,5.45,0,0,1-.22,1.87,5.57,5.57,0,0,1-.87,1.76l-1.18-1.08a4.29,4.29,0,0,0,.94-1.13,4.77,4.77,0,0,0,.53-1.47A7.6,7.6,0,0,0,96.69,53.57Z"/><path class="cls-1" d="M99,53.57a18.48,18.48,0,0,1-.43,3.78,8.58,8.58,0,0,1-.62,1.83,3.59,3.59,0,0,1-1.26,1.54l-.25-.43A3.28,3.28,0,0,0,97.58,59a8.33,8.33,0,0,0,.71-1.71A17.92,17.92,0,0,0,99,53.57Z"/><path class="cls-1" d="M100.45,52.73a13.69,13.69,0,0,1,.11,4.61,8,8,0,0,1-.74,2.32,6,6,0,0,1-1.66,2l-.84-1.36A4.6,4.6,0,0,0,98.8,59a7.14,7.14,0,0,0,1-1.88A13.31,13.31,0,0,0,100.45,52.73Z"/><path class="cls-1" d="M102.51,52.73a17.58,17.58,0,0,1-.25,5,8.67,8.67,0,0,1-.84,2.38A5,5,0,0,1,99.68,62l-.24-.44a4.58,4.58,0,0,0,1.66-1.64,8.05,8.05,0,0,0,.91-2.25A17.12,17.12,0,0,0,102.51,52.73Z"/><path class="cls-1" d="M104.54,55.08a23.76,23.76,0,0,1-.79,4,10.14,10.14,0,0,1-1.91,3.83l-1.09-1.17a9.15,9.15,0,0,0,2.26-3A23,23,0,0,0,104.54,55.08Z"/><path class="cls-1" d="M106.13,53.66a22.78,22.78,0,0,1-.69,5.16,13.6,13.6,0,0,1-.9,2.55,8,8,0,0,1-1.68,2.36l-1.22-1.58a8.59,8.59,0,0,0,2.86-3.67A22.61,22.61,0,0,0,106.13,53.66Z"/><path class="cls-1" d="M108.21,53.57a19,19,0,0,1-1.8,6.18,14.75,14.75,0,0,1-1.8,2.79,12.74,12.74,0,0,1-2.55,2.3l-1-1.74a10.76,10.76,0,0,0,2.45-1.6,13.65,13.65,0,0,0,2-2.26A18.44,18.44,0,0,0,108.21,53.57Z"/><path class="cls-1" d="M109.39,54.71a17.86,17.86,0,0,1-1.18,4.65A9.67,9.67,0,0,1,107,61.57a6.19,6.19,0,0,1-2.07,1.8l-.74-1.86a4.47,4.47,0,0,0,1.71-1,8.68,8.68,0,0,0,1.45-1.66A17.49,17.49,0,0,0,109.39,54.71Z"/><path class="cls-1" d="M112,53.27a16.66,16.66,0,0,1-.53,3.26,13.22,13.22,0,0,1-1.25,3.12,9,9,0,0,1-2.28,2.67,8.18,8.18,0,0,1-3.39,1.42l-.18-2a6.36,6.36,0,0,0,2.75-.69,7.8,7.8,0,0,0,2.27-2A12.65,12.65,0,0,0,111,56.36,15.71,15.71,0,0,0,112,53.27Z"/><path class="cls-1" d="M114,53a12.73,12.73,0,0,1-1.15,3.7,11.61,11.61,0,0,1-2.26,3.17,10.55,10.55,0,0,1-3.23,2.21,11.64,11.64,0,0,1-1.85.67c-.63.18-1.28.26-1.93.4l-.06-.5c.63-.11,1.27-.17,1.88-.32a11.26,11.26,0,0,0,1.81-.59,10.18,10.18,0,0,0,3.2-2.05,11.35,11.35,0,0,0,2.33-3A12.64,12.64,0,0,0,114,53Z"/><path class="cls-1" d="M116.25,54.71a18,18,0,0,1-2.06,4.08A14.93,14.93,0,0,1,111,62.23a10.68,10.68,0,0,1-4.36,2,12.39,12.39,0,0,1-4.89,0l.52-1.93a10.58,10.58,0,0,0,4.14.49,9.09,9.09,0,0,0,4-1.34,13.73,13.73,0,0,0,3.33-2.91A17.67,17.67,0,0,0,116.25,54.71Z"/><path class="cls-1" d="M85.63,56.51a4.13,4.13,0,0,1,1.07,2.24,4.29,4.29,0,0,1,0,1.29,5.83,5.83,0,0,1-.34,1.24l-.45-.21A5.29,5.29,0,0,0,86.32,60a3.89,3.89,0,0,0,.13-1.18A4,4,0,0,0,85.63,56.51Z"/><path class="cls-1" d="M87.34,55.3a4.06,4.06,0,0,1,1.07,2.24,4.23,4.23,0,0,1,0,1.28,5.38,5.38,0,0,1-.34,1.25l-.45-.21A5.94,5.94,0,0,0,88,58.75a3.89,3.89,0,0,0,.12-1.18A3.93,3.93,0,0,0,87.34,55.3Z"/><path class="cls-1" d="M89.29,53.33a5.06,5.06,0,0,1,1.26,4.86,7.1,7.1,0,0,1-.68,1.64l-.42-.27a6.61,6.61,0,0,0,.74-1.48,4.84,4.84,0,0,0-.9-4.75Z"/><path class="cls-1" d="M91.4,53.47a5.06,5.06,0,0,1,.43,5,7.12,7.12,0,0,1-.94,1.5l-.37-.33a6.73,6.73,0,0,0,1-1.34A4.82,4.82,0,0,0,92,56.74,5,5,0,0,0,91.4,53.47Z"/><path class="cls-1" d="M93,56.48a5,5,0,0,1,.12,2.24,3.18,3.18,0,0,1-.45,1.08,2.73,2.73,0,0,1-.87.82l-.23-.44a2.37,2.37,0,0,0,.8-.61,2.89,2.89,0,0,0,.51-.91A4.85,4.85,0,0,0,93,56.48Z"/><path class="cls-1" d="M93.87,54a7.91,7.91,0,0,1,.68,3.37,5.47,5.47,0,0,1-.33,1.73,5.19,5.19,0,0,1-.9,1.54L93,60.31A5,5,0,0,0,93.88,59a5.54,5.54,0,0,0,.42-1.61A7.83,7.83,0,0,0,93.87,54Z"/><path class="cls-1" d="M96.13,54a18.64,18.64,0,0,1-.43,3.78,8.69,8.69,0,0,1-.62,1.82,3.68,3.68,0,0,1-1.26,1.55l-.25-.43a3.28,3.28,0,0,0,1.18-1.29,8.65,8.65,0,0,0,.71-1.72A17.83,17.83,0,0,0,96.13,54Z"/><path class="cls-1" d="M97.63,53.15a13.65,13.65,0,0,1-.17,4.55,7.82,7.82,0,0,1-.82,2.17A5.47,5.47,0,0,1,95,61.59l-.26-.42a5.27,5.27,0,0,0,1.55-1.5,7.69,7.69,0,0,0,.89-2A13.56,13.56,0,0,0,97.63,53.15Z"/><path class="cls-1" d="M99.68,53.15a17.57,17.57,0,0,1-.25,5,8.55,8.55,0,0,1-.84,2.38,5,5,0,0,1-1.74,1.89l-.24-.44a4.58,4.58,0,0,0,1.66-1.64,8.12,8.12,0,0,0,.91-2.24A17.23,17.23,0,0,0,99.68,53.15Z"/><path class="cls-1" d="M101.71,55.5a22.7,22.7,0,0,1-1,3.88,10.07,10.07,0,0,1-2,3.53l-.34-.36a9.65,9.65,0,0,0,2.13-3.26A22.84,22.84,0,0,0,101.71,55.5Z"/><path class="cls-1" d="M103.31,54.08a24.29,24.29,0,0,1-1,5,9.82,9.82,0,0,1-2.68,4.44l-.31-.39A9.55,9.55,0,0,0,102,59,24.11,24.11,0,0,0,103.31,54.08Z"/><path class="cls-1" d="M106.24,52.27a18.69,18.69,0,0,1-2.13,6,14,14,0,0,1-1.88,2.59,12.06,12.06,0,0,1-2.51,2l-.25-.44A11,11,0,0,0,102,60.58a14.11,14.11,0,0,0,1.94-2.46A18.84,18.84,0,0,0,106.24,52.27Z"/><path class="cls-1" d="M106.56,55.13a17.93,17.93,0,0,1-1.51,4.48,7.26,7.26,0,0,1-3.24,3.49l-.19-.47a6.87,6.87,0,0,0,3.21-3.14A17.71,17.71,0,0,0,106.56,55.13Z"/><path class="cls-1" d="M109.17,53.69a16.65,16.65,0,0,1-.72,3.2,13,13,0,0,1-1.38,3,8.68,8.68,0,0,1-2.28,2.4,7.5,7.5,0,0,1-3.14,1.15l-.05-.5a7.06,7.06,0,0,0,3-1,8.45,8.45,0,0,0,2.27-2.23,12.42,12.42,0,0,0,1.47-2.88A16.36,16.36,0,0,0,109.17,53.69Z"/><path class="cls-1" d="M111.21,53.47a12.73,12.73,0,0,1-1.15,3.7,11.41,11.41,0,0,1-2.26,3.16,10.26,10.26,0,0,1-3.23,2.21,11.68,11.68,0,0,1-1.85.68c-.63.18-1.28.26-1.93.39l-.05-.49c.62-.11,1.26-.17,1.87-.33a11.26,11.26,0,0,0,1.81-.59,10.16,10.16,0,0,0,3.21-2.05,11.36,11.36,0,0,0,2.32-3A12.68,12.68,0,0,0,111.21,53.47Z"/><path class="cls-1" d="M114.74,54.92a18.69,18.69,0,0,1-2.21,4,14.77,14.77,0,0,1-3.23,3.23,10,10,0,0,1-4.23,1.76,11.75,11.75,0,0,1-4.61-.22l.13-.49a11,11,0,0,0,4.42.33,9.51,9.51,0,0,0,4.15-1.59,14.36,14.36,0,0,0,3.27-3.1A17.82,17.82,0,0,0,114.74,54.92Z"/><path class="cls-1" d="M79.8,62.38a16.83,16.83,0,0,1,5-5,17.06,17.06,0,0,1,3.24-1.66,16.3,16.3,0,0,1,3.61-.89,15.6,15.6,0,0,1,3.74.07A14,14,0,0,1,99,56a14.24,14.24,0,0,1,5.48,4.57l-.11.12a19.08,19.08,0,0,0-5.79-3.58,15.65,15.65,0,0,0-3.31-.79,14.32,14.32,0,0,0-3.4,0,17.84,17.84,0,0,0-6.45,2.09,25.35,25.35,0,0,0-5.52,4.06Z"/><path class="cls-1" d="M96.1,70a6.73,6.73,0,0,1,.22,1.53A2.34,2.34,0,0,1,96,73a2.17,2.17,0,0,0,0-1.4,6.48,6.48,0,0,0-.54-1.3Z"/><path class="cls-1" d="M97.25,69.48A5.17,5.17,0,0,1,97.7,71a2.66,2.66,0,0,1-.23,1.53,2.28,2.28,0,0,0-.14-1.44,4.5,4.5,0,0,0-.71-1.23Z"/><path class="cls-1" d="M98.55,69.19A5.17,5.17,0,0,1,99,70.74a2.49,2.49,0,0,1-.23,1.53,2.35,2.35,0,0,0-.13-1.44,4.42,4.42,0,0,0-.72-1.23Z"/><path class="cls-1" d="M99.39,68.74a5,5,0,0,1,.52.77,6.66,6.66,0,0,1,.37.82,6,6,0,0,1,.37,1.7,5.48,5.48,0,0,0-.71-1.53,5.56,5.56,0,0,0-.5-.67,4.2,4.2,0,0,0-.57-.55Z"/><path class="cls-1" d="M100.09,68.16a13.19,13.19,0,0,1,1.46,1.23,5.33,5.33,0,0,1,1.14,1.49,5.11,5.11,0,0,0-1.38-1.2,13,13,0,0,0-1.59-.87Z"/><path class="cls-1" d="M101.48,67.49a14.29,14.29,0,0,1,1.46,1.22,5.52,5.52,0,0,1,1.14,1.5A4.94,4.94,0,0,0,102.7,69a13,13,0,0,0-1.59-.87Z"/><path class="cls-1" d="M101.72,66.57a8.94,8.94,0,0,1,1.23.65,8.67,8.67,0,0,1,1.11.8,4.9,4.9,0,0,1,1.55,2.17,4.64,4.64,0,0,0-1.84-1.76,8.58,8.58,0,0,0-1.15-.54,8.23,8.23,0,0,0-1.2-.37Z"/><path class="cls-1" d="M103.42,65.79a12.39,12.39,0,0,1,3,1.72,6.13,6.13,0,0,1,2,2.68,5.89,5.89,0,0,0-2.27-2.37,12.06,12.06,0,0,0-3-1.32Z"/><path class="cls-21" d="M65.47,65c1.19,1.91-.32,5.9-3.32,7.19-2.76,1.18-6.54,0-7.28-2.33-.6-1.91.74-4.18,1-4.41C58.3,62.76,64.06,62.8,65.47,65Z"/><path class="cls-1" d="M63.44,67.46a2.93,2.93,0,0,1,1.15.49,2.93,2.93,0,0,0-1-.8Z"/><path class="cls-1" d="M59.6,63.55a6,6,0,0,1,3.7.47,3.75,3.75,0,0,1,1.14,6.22,6.27,6.27,0,0,1-7,1.29,4,4,0,0,1-2.29-2.77,4,4,0,0,1,1.12-3.44A6.12,6.12,0,0,1,59.6,63.55Zm0-.13a7.06,7.06,0,0,0-1.84.59,6.65,6.65,0,0,0-1.65,1.09,5.34,5.34,0,0,0-1.24,1.64,4.2,4.2,0,0,0-.38,2.15A4.89,4.89,0,0,0,57,72.58a5.93,5.93,0,0,0,1.19.51A2.25,2.25,0,0,0,59.44,73c.94-.21,1.89-.43,2.83-.67l1.85-.5A2,2,0,0,0,65.28,71a4.89,4.89,0,0,0,1-4.35,4.11,4.11,0,0,0-1.12-1.86,5.19,5.19,0,0,0-1.74-1.09,6.5,6.5,0,0,0-1.93-.43A6.65,6.65,0,0,0,59.57,63.42Z"/><ellipse class="cls-1" cx="60.71" cy="66.91" rx="3.12" ry="2.85" transform="translate(-11.18 12.2) rotate(-10.51)"/><path class="cls-20" d="M62.2,67.64l.13,0a.43.43,0,0,0,.23-.28.46.46,0,0,0-.53-.6l-.13,0a.47.47,0,0,0-.24.28.45.45,0,0,0,0,.36.48.48,0,0,0,.51.25Z"/><path class="cls-1" d="M66.07,66.82l-.48-.2-.52-.21A5.76,5.76,0,0,0,64,66.08a5.76,5.76,0,0,1,1,.48l.48.29a4.63,4.63,0,0,0,.52.29Z"/><path class="cls-1" d="M66.31,67.75l-.44-.17-.47-.19a5.42,5.42,0,0,0-1-.29,5,5,0,0,1,.9.44l.43.26a4.59,4.59,0,0,0,.47.27Z"/><path class="cls-1" d="M66.14,68.93l-.43-.17-.47-.18a4.55,4.55,0,0,0-1-.3,4.45,4.45,0,0,1,.9.45l.43.26a4.59,4.59,0,0,0,.47.27Z"/><path class="cls-1" d="M65.5,70.69c-.13-.09-.36-.28-.53-.41l-.57-.44a6.67,6.67,0,0,0-1.2-.78,6.27,6.27,0,0,1,1.09.91l.51.5c.19.17.31.32.55.52Z"/><path class="cls-1" d="M64.62,71.61l-.54-.42-.56-.43A6.74,6.74,0,0,0,62.31,70a6.76,6.76,0,0,1,1.1.9l.51.5a5.67,5.67,0,0,0,.55.52Z"/><path class="cls-1" d="M63.54,71.69c-.08-.06-.22-.21-.33-.31l-.36-.33a4.49,4.49,0,0,0-.8-.62,4,4,0,0,1,.66.7l.29.37a4,4,0,0,0,.31.39Z"/><path class="cls-1" d="M61.43,72.46s-.06-.19-.09-.28l-.1-.32a2.4,2.4,0,0,0-.28-.61,2,2,0,0,1,.11.64l0,.33a3,3,0,0,0,0,.36Z"/><path class="cls-1" d="M64.86,71.06c-.06,0-.21-.18-.31-.26l-.34-.29a3.73,3.73,0,0,0-.73-.52,3.37,3.37,0,0,1,.61.64l.28.34c.11.13.15.21.31.38Z"/><path class="cls-1" d="M65.84,69.86a2.83,2.83,0,0,1-.28-.15l-.31-.17a3.23,3.23,0,0,0-.66-.29,3.33,3.33,0,0,1,.56.43l.27.24a2.29,2.29,0,0,0,.3.25Z"/><path class="cls-1" d="M62,72c0-.08-.11-.26-.16-.39l-.19-.41a3.34,3.34,0,0,0-.45-.8,2.89,2.89,0,0,1,.29.84l.1.44a4.56,4.56,0,0,0,.12.46Z"/><path class="cls-1" d="M60.4,72.5l-.11-.93c0-.16,0-.32-.08-.48a1.46,1.46,0,0,0-.15-.46,1.49,1.49,0,0,1,.07.47c0,.16,0,.33,0,.49l0,.49v.24a1.29,1.29,0,0,0,0,.28Z"/><path class="cls-1" d="M58.25,72.68a.79.79,0,0,1,0-.15l.06-.19.13-.4a3.72,3.72,0,0,0,.19-.8,4.12,4.12,0,0,1-.34.74l-.21.35-.1.18a1.25,1.25,0,0,0-.11.23Z"/><path class="cls-1" d="M57.08,71.9a.79.79,0,0,1,.05-.15l.06-.2.13-.39a3.68,3.68,0,0,0,.19-.81,3.82,3.82,0,0,1-.34.74l-.21.36-.1.18a.87.87,0,0,0-.11.22Z"/><path class="cls-1" d="M55.46,70.91l.13-.1.16-.12.34-.25a4,4,0,0,0,.62-.55,3.36,3.36,0,0,1-.71.41l-.37.17-.19.09a1,1,0,0,0-.22.12Z"/><path class="cls-1" d="M59,72.53l.25-1a4.58,4.58,0,0,0,.17-1.1,4.56,4.56,0,0,1-.33,1l-.21.51-.11.25a2.52,2.52,0,0,0-.11.31Z"/><path class="cls-1" d="M57.62,72.48l.53-1,.27-.55a2.91,2.91,0,0,0,.19-.59,2.81,2.81,0,0,1-.27.55c-.1.17-.22.34-.33.51l-.35.5-.18.25a3.39,3.39,0,0,0-.19.3Z"/><path class="cls-1" d="M56,71.52l.19-.23.22-.27a3.24,3.24,0,0,0,.4-.57,4.32,4.32,0,0,1-.51.45l-.28.2a3.45,3.45,0,0,0-.3.24Z"/><path class="cls-1" d="M54.87,69.57l.42,0,.46,0a4.85,4.85,0,0,0,.93-.13,4.69,4.69,0,0,1-.92,0l-.46,0a3.23,3.23,0,0,0-.5-.05Z"/><path class="cls-1" d="M54.62,68.38l.42.05.47.06a5.92,5.92,0,0,0,.94,0,4.8,4.8,0,0,1-.91-.21l-.44-.14c-.17,0-.26-.09-.49-.14Z"/><path class="cls-1" d="M55,67.64H55l.13,0,.27,0a1.63,1.63,0,0,0,.54,0,1.74,1.74,0,0,1-.49-.2l-.23-.14-.12-.06-.06,0,0,0h0l-.07,0Z"/><polygon class="cls-1" points="61.92 68.8 62.97 69.85 62.18 68.58 61.92 68.8"/><polygon class="cls-1" points="58.52 68.79 58.2 69.86 58.83 68.94 58.52 68.79"/><path class="cls-20" d="M62.92,67.28a.58.58,0,0,0,.22-.08.78.78,0,0,0,.41-.48.8.8,0,0,0-.92-1,.9.9,0,0,0-.23.08.81.81,0,0,0-.41.48.79.79,0,0,0,0,.62.81.81,0,0,0,.88.43Z"/><path class="cls-1" d="M74,71.58a22.51,22.51,0,0,0-7-7.21A19.89,19.89,0,0,0,64.72,63,14.19,14.19,0,0,0,62.26,62a11.53,11.53,0,0,0-5.75-.57,8.47,8.47,0,0,0-2.92,1.16c-.68.44-1.38.85-2,1.3-1.34.89-2.68,1.74-4,2.56a16.4,16.4,0,0,1-4.08,1.88l-4.76,1.25c.12,0,.52.2.65.23a7.55,7.55,0,0,0,.79.19,8.29,8.29,0,0,0,1.57.1,14.71,14.71,0,0,0,3.22-.58,51,51,0,0,0,6.61-2.16A14,14,0,0,0,53,66.54l3.39-1.91a5.73,5.73,0,0,1,1.47-.72,6,6,0,0,1,1.88-.18,10.72,10.72,0,0,1,1.88.33A23.17,23.17,0,0,1,66,66a42.21,42.21,0,0,1,7.8,5.75Z"/><path class="cls-1" d="M71.15,71.93c-.28-1-2.16-.87-2.91-.78-5.31.61-10.61,1.84-15.93,1.38a3.56,3.56,0,0,1-1.54-.4,3.23,3.23,0,0,1-1.25-2c-.15-.52-.72-1.54-.41-2.08A2.51,2.51,0,0,1,50.66,67l-6.89,2.77c.13-.06,1.07.66,1.24.76.45.26.91.51,1.39.74a23.11,23.11,0,0,0,2.4,1c.72.27,1.44.37,2.16.61a17.82,17.82,0,0,0,6.22.56,37.76,37.76,0,0,0,6.07-1,24.3,24.3,0,0,1,6.07-.61,10.48,10.48,0,0,1,1.25.07c.21,0,.4.16.6.19A.36.36,0,0,0,71.15,71.93Z"/><path class="cls-1" d="M47.64,56.69A13.48,13.48,0,0,0,48.94,61a7.27,7.27,0,0,0,1.24,1.72,4.72,4.72,0,0,0,1.65,1l-.63,1.47a6,6,0,0,1-1.94-1.72,8.16,8.16,0,0,1-1-2.19A13.32,13.32,0,0,1,47.64,56.69Z"/><path class="cls-1" d="M45.6,57a17.38,17.38,0,0,0,1.2,4.78A8.13,8.13,0,0,0,48,63.86a4.44,4.44,0,0,0,1.87,1.38l-.17.47a4.89,4.89,0,0,1-2-1.62,8.5,8.5,0,0,1-1.17-2.23A17.7,17.7,0,0,1,45.6,57Z"/><path class="cls-1" d="M43.94,59.61A23.4,23.4,0,0,0,46,63a9.18,9.18,0,0,0,2.67,2.61L47.73,67a10.31,10.31,0,0,1-2.44-3.52A23.15,23.15,0,0,1,43.94,59.61Z"/><path class="cls-1" d="M42.15,58.43A23.35,23.35,0,0,0,44.46,63a8.75,8.75,0,0,0,3.37,3.22l-1,1.74a8.08,8.08,0,0,1-2-2.1,13.36,13.36,0,0,1-1.26-2.39A23.77,23.77,0,0,1,42.15,58.43Z"/><path class="cls-1" d="M40.08,58.65a18.55,18.55,0,0,0,3.46,5.22,13.27,13.27,0,0,0,2.32,1.94A10.42,10.42,0,0,0,48.51,67l-.71,1.87A12.46,12.46,0,0,1,45,67a14.33,14.33,0,0,1-2.19-2.5A19.35,19.35,0,0,1,40.08,58.65Z"/><path class="cls-1" d="M39.09,59.93a17,17,0,0,0,2.63,3.85,8.68,8.68,0,0,0,1.68,1.44,4.61,4.61,0,0,0,1.83.7l-.47,1.94a6.17,6.17,0,0,1-2.31-1.48,10,10,0,0,1-1.53-2A17.42,17.42,0,0,1,39.09,59.93Z"/><path class="cls-1" d="M36.3,58.89a15.76,15.76,0,0,0,1.44,2.91,12.38,12.38,0,0,0,2,2.48,7.9,7.9,0,0,0,2.53,1.62,6.42,6.42,0,0,0,2.81.28l.11,2a8.17,8.17,0,0,1-3.55-.92A9.12,9.12,0,0,1,39,65,12.93,12.93,0,0,1,37.3,62,16.14,16.14,0,0,1,36.3,58.89Z"/><path class="cls-1" d="M34.24,59A12.77,12.77,0,0,0,36,62.38a11.43,11.43,0,0,0,2.74,2.68,10.16,10.16,0,0,0,3.47,1.56,10.77,10.77,0,0,0,1.87.33c.63.07,1.27,0,1.91,0v.5c-.65,0-1.31,0-2-.11a12.47,12.47,0,0,1-1.93-.4,10.66,10.66,0,0,1-3.51-1.73,11.4,11.4,0,0,1-2.7-2.8A13.1,13.1,0,0,1,34.24,59Z"/><path class="cls-1" d="M32.29,60.92a18,18,0,0,0,3,3.4A14.45,14.45,0,0,0,39,66.72a9.36,9.36,0,0,0,4.18.75,10.65,10.65,0,0,0,4-1.09l.8,1.83a12.3,12.3,0,0,1-4.83.76,10.48,10.48,0,0,1-4.61-1.36,14.77,14.77,0,0,1-3.62-2.94A17.71,17.71,0,0,1,32.29,60.92Z"/><path class="cls-1" d="M62.86,58.3a3.92,3.92,0,0,0-.49,2.36,3.75,3.75,0,0,0,.3,1.15,5,5,0,0,0,.58,1l-.42.27a5.65,5.65,0,0,1-.52-1.18,4.54,4.54,0,0,1-.19-1.27A4,4,0,0,1,62.86,58.3Z"/><path class="cls-1" d="M52.11,57.32A17.5,17.5,0,0,0,53.3,60.9a8.55,8.55,0,0,0,1,1.6,3.13,3.13,0,0,0,1.36,1.1l-.19.47A3.7,3.7,0,0,1,54,62.72,8.22,8.22,0,0,1,53.07,61,17.49,17.49,0,0,1,52.11,57.32Z"/><path class="cls-1" d="M50.5,56.7a13.38,13.38,0,0,0,1,4.38A7.45,7.45,0,0,0,52.73,63a4.89,4.89,0,0,0,1.74,1.26l-.2.46a5.48,5.48,0,0,1-1.83-1.47,7.92,7.92,0,0,1-1.12-2A13.75,13.75,0,0,1,50.5,56.7Z"/><path class="cls-1" d="M48.46,57a17.38,17.38,0,0,0,1.2,4.78,8.13,8.13,0,0,0,1.24,2.09,4.36,4.36,0,0,0,1.87,1.38l-.17.47a4.89,4.89,0,0,1-2-1.62,8.34,8.34,0,0,1-1.17-2.23A17.7,17.7,0,0,1,48.46,57Z"/><path class="cls-1" d="M46.8,59.62a22.05,22.05,0,0,0,1.81,3.56,9.7,9.7,0,0,0,2.58,2.92l-.28.41a10.07,10.07,0,0,1-2.52-3.2A23.07,23.07,0,0,1,46.8,59.62Z"/><path class="cls-1" d="M45,58.44a23.92,23.92,0,0,0,2,4.72,9.44,9.44,0,0,0,3.33,3.69l-.25.44a9.92,9.92,0,0,1-3.3-4A24.19,24.19,0,0,1,45,58.44Z"/><path class="cls-1" d="M41.85,57.07A18.68,18.68,0,0,0,45,62.52a13.62,13.62,0,0,0,2.27,2.16A11.12,11.12,0,0,0,50,66.16l-.18.47A12,12,0,0,1,47.05,65a14.26,14.26,0,0,1-2.23-2.3A18.68,18.68,0,0,1,41.85,57.07Z"/><path class="cls-1" d="M42,60A17.2,17.2,0,0,0,44.28,64a6.87,6.87,0,0,0,3.64,2.65l-.12.49a7.22,7.22,0,0,1-3.72-3A17.73,17.73,0,0,1,42,60Z"/><path class="cls-1" d="M39.16,58.9a15.93,15.93,0,0,0,1.28,3,12.25,12.25,0,0,0,1.87,2.64,8.44,8.44,0,0,0,2.57,1.88,7.12,7.12,0,0,0,3.09.52l0,.5a7.4,7.4,0,0,1-3.28-.68,8.81,8.81,0,0,1-2.6-2.05A13.43,13.43,0,0,1,40.32,62,16.62,16.62,0,0,1,39.16,58.9Z"/><path class="cls-1" d="M37.1,59a12.72,12.72,0,0,0,1.78,3.43,11.17,11.17,0,0,0,2.73,2.67,10.18,10.18,0,0,0,3.47,1.57A11.79,11.79,0,0,0,47,67c.63.07,1.27,0,1.91.05v.5c-.65,0-1.31,0-2-.11A12.47,12.47,0,0,1,45,67a10.64,10.64,0,0,1-3.51-1.72,11.62,11.62,0,0,1-2.7-2.81A13.1,13.1,0,0,1,37.1,59Z"/><path class="cls-1" d="M33.82,60.92a18.3,18.3,0,0,0,2.85,3.53,14.61,14.61,0,0,0,3.68,2.6,9.59,9.59,0,0,0,4.33,1,11.14,11.14,0,0,0,4.33-1l.2.46a12,12,0,0,1-4.53.88,10,10,0,0,1-4.44-1.13,14.25,14.25,0,0,1-3.66-2.74A17.91,17.91,0,0,1,33.82,60.92Z"/><path class="cls-1" d="M69.47,63.26a16.78,16.78,0,0,0-5.69-4.19,17.13,17.13,0,0,0-3.45-1.18,15.8,15.8,0,0,0-3.7-.36,15,15,0,0,0-3.7.61,14.58,14.58,0,0,0-3.36,1.59,14.18,14.18,0,0,0-4.76,5.32l.12.1a19,19,0,0,1,5.22-4.37,15.47,15.47,0,0,1,3.16-1.27A14.71,14.71,0,0,1,56.67,59a17.79,17.79,0,0,1,6.69,1.15,25.48,25.48,0,0,1,6,3.21Z"/><path class="cls-1" d="M55.17,73.35a6,6,0,0,0-.35,1.36A2.16,2.16,0,0,0,55,76.1a2.34,2.34,0,0,1-.55-1.39,6.61,6.61,0,0,1,0-1.54Z"/><path class="cls-1" d="M53.91,73.12a4.4,4.4,0,0,0-.53,1.32,2.4,2.4,0,0,0,.07,1.45A2.64,2.64,0,0,1,53,74.4a4.9,4.9,0,0,1,.23-1.59Z"/><path class="cls-1" d="M52.58,73a4.4,4.4,0,0,0-.53,1.32,2.33,2.33,0,0,0,.07,1.45,2.54,2.54,0,0,1-.45-1.48,5.19,5.19,0,0,1,.22-1.6Z"/><path class="cls-1" d="M51.59,72.84a4.53,4.53,0,0,0-.48.63,6.51,6.51,0,0,0-.41.73,6.32,6.32,0,0,0-.48,1.62,6,6,0,0,1,.13-1.74,6.5,6.5,0,0,1,.25-.86,4.9,4.9,0,0,1,.4-.84Z"/><path class="cls-1" d="M50.69,72.5a12.59,12.59,0,0,0-1.46,1.09A5.06,5.06,0,0,0,48.05,75,5.09,5.09,0,0,1,49,73.33a14.06,14.06,0,0,1,1.26-1.42Z"/><path class="cls-1" d="M49.21,72a16.63,16.63,0,0,0-1.45,1.09,5.48,5.48,0,0,0-1.19,1.39,5.32,5.32,0,0,1,.92-1.64,13,13,0,0,1,1.26-1.43Z"/><path class="cls-1" d="M48.81,71.47a9.17,9.17,0,0,0-2.19,1.23,4.79,4.79,0,0,0-1.57,2,4.93,4.93,0,0,1,1.23-2.37,9.79,9.79,0,0,1,1-1,7.88,7.88,0,0,1,1.12-.82Z"/><path class="cls-1" d="M46.92,70.71a11.62,11.62,0,0,0-2.77,1.74,5.89,5.89,0,0,0-1.91,2.67,6.18,6.18,0,0,1,1.65-2.94A12.54,12.54,0,0,1,46.59,70Z"/></g></svg>